<?xml version="1.0" encoding="iso-8859-1"?>
<!-- Uploaded to: SVG Repo, www.svgrepo.com, Generator: SVG Repo Mixer Tools -->
<svg height="800px" width="800px" version="1.1" id="Layer_1" xmlns="http://www.w3.org/2000/svg" xmlns:xlink="http://www.w3.org/1999/xlink" 
	 viewBox="0 0 511.448 511.448" xml:space="preserve">
<g>
	<path style="fill:#FFFFFF;" d="M494.878,210.986v203.806c0,14.924-12.14,27.064-27.064,27.064H43.633
		c-14.924,0-27.064-12.14-27.064-27.064V210.986H494.878z M476.099,414.792V238.05c0-4.573-3.712-8.285-8.285-8.285h-88.371
		c-4.573,0-8.285,3.712-8.285,8.285v176.742c0,4.573,3.712,8.285,8.285,8.285h88.371
		C472.388,423.077,476.099,419.365,476.099,414.792z M352.38,414.792V238.05c0-4.573-3.712-8.285-8.285-8.285h-88.371
		c-4.573,0-8.285,3.712-8.285,8.285v176.742c0,4.573,3.712,8.285,8.285,8.285h88.371C348.668,423.077,352.38,419.365,352.38,414.792
		z M228.66,414.792V238.05c0-4.573-3.712-8.285-8.285-8.285H43.633c-4.573,0-8.285,3.712-8.285,8.285v176.742
		c0,4.573,3.712,8.285,8.285,8.285h176.742C224.949,423.077,228.66,419.365,228.66,414.792z"/>
	<path style="fill:#FFFFFF;" d="M494.878,96.656v27.064H16.57V96.656c0-14.924,12.14-27.064,27.064-27.064h424.181
		C482.738,69.592,494.878,81.732,494.878,96.656z M140.289,96.656c0-4.573-3.712-8.285-8.285-8.285h-8.837
		c-4.573,0-8.285,3.712-8.285,8.285s3.712,8.285,8.285,8.285h8.837C136.578,104.941,140.289,101.229,140.289,96.656z
		 M104.941,96.656c0-4.573-3.712-8.285-8.285-8.285h-8.837c-4.573,0-8.285,3.712-8.285,8.285s3.712,8.285,8.285,8.285h8.837
		C101.229,104.941,104.941,101.229,104.941,96.656z M69.592,96.656c0-4.573-3.712-8.285-8.285-8.285H52.47
		c-4.573,0-8.285,3.712-8.285,8.285s3.712,8.285,8.285,8.285h8.837C65.881,104.941,69.592,101.229,69.592,96.656z"/>
</g>
<g>
	<polygon style="fill:#C2E95D;" points="459.53,273.144 459.53,379.697 432.886,326.421 	"/>
	<polygon style="fill:#C2E95D;" points="423.629,344.945 454.415,406.507 392.843,406.507 	"/>
	<polygon style="fill:#C2E95D;" points="387.728,273.144 414.372,326.421 387.728,379.697 	"/>
	<polygon style="fill:#C2E95D;" points="454.415,246.334 423.629,307.896 392.843,246.334 	"/>
	<polygon style="fill:#C2E95D;" points="299.909,344.945 330.696,406.507 269.123,406.507 	"/>
	<polygon style="fill:#C2E95D;" points="264.009,273.144 290.652,326.421 264.009,379.697 	"/>
	<polygon style="fill:#C2E95D;" points="335.81,273.144 335.81,379.697 309.166,326.421 	"/>
	<polygon style="fill:#C2E95D;" points="330.696,246.334 299.909,307.896 269.123,246.334 	"/>
	<polygon style="fill:#C2E95D;" points="200.37,406.507 63.638,406.507 132.004,338.141 	"/>
	<polygon style="fill:#C2E95D;" points="120.284,326.421 51.918,394.787 51.918,258.055 	"/>
	<polygon style="fill:#C2E95D;" points="200.37,246.334 132.004,314.701 63.638,246.334 	"/>
	<polygon style="fill:#C2E95D;" points="212.091,258.055 212.091,394.787 143.725,326.421 	"/>
	<path style="fill:#C2E95D;" d="M494.878,140.289v54.127H16.57v-54.127H494.878z M476.099,167.353c0-4.573-3.712-8.285-8.285-8.285
		h-35.348c-4.573,0-8.285,3.712-8.285,8.285c0,4.573,3.712,8.285,8.285,8.285h35.348
		C472.388,175.638,476.099,171.926,476.099,167.353z M405.402,167.353c0-4.573-3.712-8.285-8.285-8.285h-35.348
		c-4.573,0-8.285,3.712-8.285,8.285c0,4.573,3.712,8.285,8.285,8.285h35.348C401.691,175.638,405.402,171.926,405.402,167.353z
		 M334.705,167.353c0-4.573-3.712-8.285-8.285-8.285h-35.348c-4.573,0-8.285,3.712-8.285,8.285c0,4.573,3.712,8.285,8.285,8.285
		h35.348C330.994,175.638,334.705,171.926,334.705,167.353z M264.009,167.353c0-4.573-3.712-8.285-8.285-8.285h-35.348
		c-4.573,0-8.285,3.712-8.285,8.285c0,4.573,3.712,8.285,8.285,8.285h35.348C260.297,175.638,264.009,171.926,264.009,167.353z
		 M193.312,167.353c0-4.573-3.712-8.285-8.285-8.285H43.633c-4.573,0-8.285,3.712-8.285,8.285c0,4.573,3.712,8.285,8.285,8.285
		h141.394C189.6,175.638,193.312,171.926,193.312,167.353z"/>
</g>
<g>
	<path style="fill:#535757;" d="M511.448,96.656v318.136c0,24.059-19.574,43.633-43.633,43.633H43.633
		C19.574,458.425,0,438.851,0,414.792V96.656c0-24.059,19.574-43.633,43.633-43.633h424.181
		C491.873,53.023,511.448,72.597,511.448,96.656z M494.878,414.792V210.986H16.57v203.806c0,14.924,12.14,27.064,27.064,27.064
		h424.181C482.738,441.855,494.878,429.715,494.878,414.792z M494.878,194.416v-54.127H16.57v54.127H494.878z M494.878,123.72
		V96.656c0-14.924-12.14-27.064-27.064-27.064H43.633c-14.924,0-27.064,12.14-27.064,27.064v27.064H494.878z"/>
	<path style="fill:#535757;" d="M476.099,238.05v176.742c0,4.573-3.712,8.285-8.285,8.285h-88.371c-4.573,0-8.285-3.712-8.285-8.285
		V238.05c0-4.573,3.712-8.285,8.285-8.285h88.371C472.388,229.765,476.099,233.476,476.099,238.05z M459.53,379.697V273.144
		l-26.644,53.277L459.53,379.697z M423.629,307.896l30.786-61.562h-61.573L423.629,307.896z M454.415,406.507l-30.786-61.562
		l-30.786,61.562H454.415z M414.372,326.421l-26.644-53.277v106.553L414.372,326.421z"/>
	<path style="fill:#535757;" d="M467.814,159.068c4.573,0,8.285,3.712,8.285,8.285c0,4.573-3.712,8.285-8.285,8.285h-35.348
		c-4.573,0-8.285-3.712-8.285-8.285c0-4.573,3.712-8.285,8.285-8.285H467.814z"/>
	<path style="fill:#535757;" d="M397.118,159.068c4.573,0,8.285,3.712,8.285,8.285c0,4.573-3.712,8.285-8.285,8.285h-35.348
		c-4.573,0-8.285-3.712-8.285-8.285c0-4.573,3.712-8.285,8.285-8.285H397.118z"/>
	<path style="fill:#535757;" d="M352.38,238.05v176.742c0,4.573-3.712,8.285-8.285,8.285h-88.371c-4.573,0-8.285-3.712-8.285-8.285
		V238.05c0-4.573,3.712-8.285,8.285-8.285h88.371C348.668,229.765,352.38,233.476,352.38,238.05z M335.81,379.697V273.144
		l-26.644,53.277L335.81,379.697z M299.909,307.896l30.786-61.562h-61.573L299.909,307.896z M330.696,406.507l-30.786-61.562
		l-30.786,61.562H330.696z M290.652,326.421l-26.644-53.277v106.553L290.652,326.421z"/>
	<path style="fill:#535757;" d="M326.421,159.068c4.573,0,8.285,3.712,8.285,8.285c0,4.573-3.712,8.285-8.285,8.285h-35.348
		c-4.573,0-8.285-3.712-8.285-8.285c0-4.573,3.712-8.285,8.285-8.285H326.421z"/>
	<path style="fill:#535757;" d="M255.724,159.068c4.573,0,8.285,3.712,8.285,8.285c0,4.573-3.712,8.285-8.285,8.285h-35.348
		c-4.573,0-8.285-3.712-8.285-8.285c0-4.573,3.712-8.285,8.285-8.285H255.724z"/>
	<path style="fill:#535757;" d="M228.66,238.05v176.742c0,4.573-3.712,8.285-8.285,8.285H43.633c-4.573,0-8.285-3.712-8.285-8.285
		V238.05c0-4.573,3.712-8.285,8.285-8.285h176.742C224.949,229.765,228.66,233.476,228.66,238.05z M212.091,394.787V258.055
		l-68.366,68.366L212.091,394.787z M132.004,314.701l68.366-68.366H63.638L132.004,314.701z M63.638,406.507H200.37l-68.366-68.366
		L63.638,406.507z M51.918,394.787l68.366-68.366l-68.366-68.366V394.787z"/>
	<path style="fill:#535757;" d="M185.027,159.068c4.573,0,8.285,3.712,8.285,8.285c0,4.573-3.712,8.285-8.285,8.285H43.633
		c-4.573,0-8.285-3.712-8.285-8.285c0-4.573,3.712-8.285,8.285-8.285H185.027z"/>
	<path style="fill:#535757;" d="M132.004,88.371c4.573,0,8.285,3.712,8.285,8.285s-3.712,8.285-8.285,8.285h-8.837
		c-4.573,0-8.285-3.712-8.285-8.285s3.712-8.285,8.285-8.285H132.004z"/>
	<path style="fill:#535757;" d="M96.656,88.371c4.573,0,8.285,3.712,8.285,8.285s-3.712,8.285-8.285,8.285h-8.837
		c-4.573,0-8.285-3.712-8.285-8.285s3.712-8.285,8.285-8.285H96.656z"/>
	<path style="fill:#535757;" d="M61.307,88.371c4.573,0,8.285,3.712,8.285,8.285s-3.712,8.285-8.285,8.285H52.47
		c-4.573,0-8.285-3.712-8.285-8.285s3.712-8.285,8.285-8.285H61.307z"/>
</g>
</svg>